<mxfile host="" modified="2021-02-09T01:50:26.463Z" agent="5.0 (Windows NT 6.2; Win64; x64) AppleWebKit/537.36 (KHTML, like Gecko) Chrome/84.0.4147.105 Safari/537.36" version="13.7.9" etag="v7w1h4HQPxiA8YX6bcsj" type="embed"><diagram id="hh8S2JeRB2nA6K8L9s5m" name="Page-1"><mxGraphModel dx="810" dy="567" grid="1" gridSize="10" guides="1" tooltips="1" connect="1" arrows="1" fold="1" page="1" pageScale="1" pageWidth="850" pageHeight="1100" background="#F4F1DE" math="0" shadow="0"><root><mxCell id="0"/><mxCell id="1" parent="0"/><mxCell id="3" value="HMR Sim" style="rounded=0;whiteSpace=wrap;html=1;verticalAlign=top;align=left;fontSize=18;spacingLeft=5;fillColor=#F2CC8F;strokeColor=#E07A5F;fontColor=#393C56;" vertex="1" parent="1"><mxGeometry x="240" y="40" width="420" height="440" as="geometry"/></mxCell><mxCell id="10" style="edgeStyle=orthogonalEdgeStyle;rounded=0;orthogonalLoop=1;jettySize=auto;html=1;exitX=0;exitY=0;exitDx=80;exitDy=65;exitPerimeter=0;entryX=0.25;entryY=0;entryDx=0;entryDy=0;labelBackgroundColor=#F4F1DE;strokeColor=#E07A5F;fontColor=#393C56;" edge="1" parent="1" source="4" target="9"><mxGeometry relative="1" as="geometry"/></mxCell><mxCell id="4" value="Simulation Config" style="shape=note;whiteSpace=wrap;html=1;backgroundOutline=1;darkOpacity=0.05;fillColor=#F2CC8F;strokeColor=#E07A5F;fontColor=#393C56;" vertex="1" parent="1"><mxGeometry x="70" y="20" width="80" height="100" as="geometry"/></mxCell><mxCell id="5" value="" style="rounded=0;whiteSpace=wrap;html=1;fillColor=#F2CC8F;strokeColor=#E07A5F;fontColor=#393C56;" vertex="1" parent="1"><mxGeometry x="20" y="160" width="120" height="60" as="geometry"/></mxCell><mxCell id="6" value="" style="rounded=0;whiteSpace=wrap;html=1;fillColor=#F2CC8F;strokeColor=#E07A5F;fontColor=#393C56;" vertex="1" parent="1"><mxGeometry x="30" y="170" width="120" height="60" as="geometry"/></mxCell><mxCell id="18" style="edgeStyle=orthogonalEdgeStyle;rounded=0;orthogonalLoop=1;jettySize=auto;html=1;exitX=1;exitY=0.5;exitDx=0;exitDy=0;entryX=0;entryY=0.25;entryDx=0;entryDy=0;labelBackgroundColor=#F4F1DE;strokeColor=#E07A5F;fontColor=#393C56;" edge="1" parent="1" source="7" target="9"><mxGeometry relative="1" as="geometry"/></mxCell><mxCell id="7" value="Components definitions" style="rounded=0;whiteSpace=wrap;html=1;fillColor=#F2CC8F;strokeColor=#E07A5F;fontColor=#393C56;" vertex="1" parent="1"><mxGeometry x="40" y="180" width="120" height="60" as="geometry"/></mxCell><mxCell id="22" value="" style="edgeStyle=orthogonalEdgeStyle;rounded=0;orthogonalLoop=1;jettySize=auto;html=1;labelBackgroundColor=#F4F1DE;strokeColor=#E07A5F;fontColor=#393C56;" edge="1" parent="1" source="9" target="21"><mxGeometry relative="1" as="geometry"/></mxCell><mxCell id="9" value="Simulation Parser" style="rounded=0;whiteSpace=wrap;html=1;fillColor=#F2CC8F;strokeColor=#E07A5F;fontColor=#393C56;" vertex="1" parent="1"><mxGeometry x="260" y="110" width="150" height="120" as="geometry"/></mxCell><mxCell id="15" value="" style="rounded=0;whiteSpace=wrap;html=1;fillColor=#F2CC8F;strokeColor=#E07A5F;fontColor=#393C56;" vertex="1" parent="1"><mxGeometry x="20" y="260" width="120" height="60" as="geometry"/></mxCell><mxCell id="16" value="" style="rounded=0;whiteSpace=wrap;html=1;fillColor=#F2CC8F;strokeColor=#E07A5F;fontColor=#393C56;" vertex="1" parent="1"><mxGeometry x="30" y="270" width="120" height="60" as="geometry"/></mxCell><mxCell id="20" style="edgeStyle=orthogonalEdgeStyle;rounded=0;orthogonalLoop=1;jettySize=auto;html=1;exitX=1;exitY=0.5;exitDx=0;exitDy=0;entryX=0;entryY=0.75;entryDx=0;entryDy=0;labelBackgroundColor=#F4F1DE;strokeColor=#E07A5F;fontColor=#393C56;" edge="1" parent="1" source="17" target="9"><mxGeometry relative="1" as="geometry"><Array as="points"><mxPoint x="160" y="300"/><mxPoint x="230" y="300"/><mxPoint x="230" y="200"/></Array></mxGeometry></mxCell><mxCell id="17" value="Models / Builders definitions" style="rounded=0;whiteSpace=wrap;html=1;fillColor=#F2CC8F;strokeColor=#E07A5F;fontColor=#393C56;" vertex="1" parent="1"><mxGeometry x="40" y="280" width="120" height="60" as="geometry"/></mxCell><mxCell id="29" style="edgeStyle=orthogonalEdgeStyle;rounded=0;orthogonalLoop=1;jettySize=auto;html=1;exitX=0.25;exitY=1;exitDx=0;exitDy=0;labelBackgroundColor=#F4F1DE;strokeColor=#E07A5F;fontColor=#393C56;" edge="1" parent="1" source="21"><mxGeometry relative="1" as="geometry"><mxPoint x="120" y="440" as="targetPoint"/><Array as="points"><mxPoint x="260" y="300"/><mxPoint x="260" y="440"/></Array></mxGeometry></mxCell><mxCell id="31" style="edgeStyle=orthogonalEdgeStyle;rounded=0;orthogonalLoop=1;jettySize=auto;html=1;exitX=0.5;exitY=1;exitDx=0;exitDy=0;entryX=0;entryY=0.75;entryDx=0;entryDy=0;labelBackgroundColor=#F4F1DE;strokeColor=#E07A5F;fontColor=#393C56;" edge="1" parent="1" source="21" target="23"><mxGeometry relative="1" as="geometry"><Array as="points"><mxPoint x="335" y="335"/></Array></mxGeometry></mxCell><mxCell id="32" value="&lt;font style=&quot;font-size: 16px&quot; face=&quot;Courier New&quot;&gt;r&lt;/font&gt;&lt;font face=&quot;Courier New&quot; style=&quot;font-size: 16px&quot;&gt;un()&lt;/font&gt;" style="edgeLabel;html=1;align=center;verticalAlign=middle;resizable=0;points=[];labelBackgroundColor=#F4F1DE;fontColor=#393C56;" vertex="1" connectable="0" parent="31"><mxGeometry x="-0.44" y="22" relative="1" as="geometry"><mxPoint x="22" y="23" as="offset"/></mxGeometry></mxCell><mxCell id="21" value="&lt;p style=&quot;margin: 0px ; margin-top: 4px ; text-align: center&quot;&gt;&lt;br&gt;&lt;b&gt;Simulation instance&lt;/b&gt;&lt;/p&gt;" style="verticalAlign=top;align=left;overflow=fill;fontSize=12;fontFamily=Helvetica;html=1;fillColor=#F2CC8F;strokeColor=#E07A5F;fontColor=#393C56;" vertex="1" parent="1"><mxGeometry x="260" y="260" width="150" height="40" as="geometry"/></mxCell><mxCell id="33" style="edgeStyle=orthogonalEdgeStyle;rounded=0;orthogonalLoop=1;jettySize=auto;html=1;exitX=1;exitY=0.5;exitDx=0;exitDy=0;fontSize=18;labelBackgroundColor=#F4F1DE;strokeColor=#E07A5F;fontColor=#393C56;" edge="1" parent="1" source="23"><mxGeometry relative="1" as="geometry"><mxPoint x="760" y="320" as="targetPoint"/><Array as="points"><mxPoint x="760" y="260"/></Array></mxGeometry></mxCell><mxCell id="23" value="Simulation Engine" style="html=1;verticalAlign=top;align=left;spacingLeft=5;fillColor=#F2CC8F;strokeColor=#E07A5F;fontColor=#393C56;" vertex="1" parent="1"><mxGeometry x="425" y="110" width="215" height="300" as="geometry"/></mxCell><mxCell id="24" value="" style="rounded=0;whiteSpace=wrap;html=1;fillColor=#F2CC8F;strokeColor=#E07A5F;fontColor=#393C56;" vertex="1" parent="1"><mxGeometry x="690" y="80" width="120" height="60" as="geometry"/></mxCell><mxCell id="25" value="" style="rounded=0;whiteSpace=wrap;html=1;fillColor=#F2CC8F;strokeColor=#E07A5F;fontColor=#393C56;" vertex="1" parent="1"><mxGeometry x="700" y="90" width="120" height="60" as="geometry"/></mxCell><mxCell id="27" style="edgeStyle=orthogonalEdgeStyle;rounded=0;orthogonalLoop=1;jettySize=auto;html=1;exitX=0;exitY=0.5;exitDx=0;exitDy=0;entryX=0.75;entryY=0;entryDx=0;entryDy=0;labelBackgroundColor=#F4F1DE;strokeColor=#E07A5F;fontColor=#393C56;" edge="1" parent="1" source="26" target="23"><mxGeometry relative="1" as="geometry"/></mxCell><mxCell id="26" value="Systems definitions" style="rounded=0;whiteSpace=wrap;html=1;fillColor=#F2CC8F;strokeColor=#E07A5F;fontColor=#393C56;" vertex="1" parent="1"><mxGeometry x="710" y="100" width="120" height="60" as="geometry"/></mxCell><mxCell id="28" style="edgeStyle=orthogonalEdgeStyle;rounded=0;orthogonalLoop=1;jettySize=auto;html=1;exitX=0.5;exitY=1;exitDx=0;exitDy=0;labelBackgroundColor=#F4F1DE;strokeColor=#E07A5F;fontColor=#393C56;" edge="1" parent="1" source="23" target="23"><mxGeometry relative="1" as="geometry"/></mxCell><mxCell id="30" value="Simulation build report" style="rounded=0;whiteSpace=wrap;html=1;align=center;fillColor=#F2CC8F;strokeColor=#E07A5F;fontColor=#393C56;" vertex="1" parent="1"><mxGeometry x="10" y="410" width="110" height="60" as="geometry"/></mxCell><mxCell id="34" value="&lt;font style=&quot;font-size: 12px&quot;&gt;Execution reports&lt;br&gt;(via Seer)&lt;br&gt;&lt;/font&gt;" style="html=1;fontSize=18;align=center;fillColor=#F2CC8F;strokeColor=#E07A5F;fontColor=#393C56;" vertex="1" parent="1"><mxGeometry x="705" y="320" width="110" height="50" as="geometry"/></mxCell><mxCell id="35" value="- esper entities&lt;br&gt;- simpy processes&lt;br&gt;- event queue" style="text;html=1;strokeColor=none;fillColor=none;align=center;verticalAlign=middle;whiteSpace=wrap;rounded=0;fontSize=18;fontColor=#393C56;" vertex="1" parent="1"><mxGeometry x="452.5" y="150" width="160" height="120" as="geometry"/></mxCell></root></mxGraphModel></diagram></mxfile>